<svg width="317" height="97" viewBox="0 0 317 97" fill="none" xmlns="http://www.w3.org/2000/svg">
<path d="M88.4625 40.192H98.7665L104.975 59.072L110.287 40.192H119.823L109.967 72H100.303L93.3905 51.456L86.6065 72H76.7505L66.7665 40.192H76.8785L82.1905 59.008L88.4625 40.192ZM131.211 52.288H143.947C143.861 50.8373 143.285 49.5787 142.219 48.512C141.195 47.4453 139.637 46.912 137.547 46.912C135.669 46.912 134.176 47.4667 133.067 48.576C131.957 49.6853 131.339 50.9227 131.211 52.288ZM144.651 60.544L152.779 62.848C151.968 65.792 150.283 68.224 147.723 70.144C145.163 72.0213 141.963 72.96 138.123 72.96C133.515 72.96 129.589 71.424 126.347 68.352C123.147 65.28 121.547 61.1627 121.547 56C121.547 51.0507 123.104 47.0187 126.219 43.904C129.376 40.7893 133.109 39.232 137.419 39.232C142.368 39.232 146.251 40.6827 149.067 43.584C151.925 46.4427 153.354 50.432 153.354 55.552C153.354 57.1733 153.291 58.176 153.163 58.56H131.019C131.104 60.3093 131.851 61.7813 133.259 62.976C134.667 64.128 136.331 64.704 138.251 64.704C141.536 64.704 143.669 63.3173 144.651 60.544ZM169.009 72H159.601V25.664H169.137V43.2C169.862 42.1333 171.057 41.2373 172.721 40.512C174.385 39.7867 176.262 39.424 178.353 39.424C182.875 39.424 186.459 40.9813 189.104 44.096C191.793 47.168 193.137 51.136 193.137 56C193.137 60.864 191.707 64.8747 188.849 68.032C186.033 71.1467 182.406 72.704 177.969 72.704C175.921 72.704 174.107 72.32 172.529 71.552C170.95 70.7413 169.777 69.696 169.009 68.416V72ZM183.409 56.064C183.409 53.504 182.726 51.5627 181.361 50.24C179.995 48.8747 178.289 48.192 176.241 48.192C174.193 48.192 172.465 48.8747 171.057 50.24C169.691 51.5627 169.009 53.504 169.009 56.064C169.009 58.5813 169.713 60.544 171.121 61.952C172.529 63.3173 174.235 64 176.241 64C178.246 64 179.931 63.3173 181.297 61.952C182.705 60.544 183.409 58.5813 183.409 56.064ZM209.141 84.16H199.413V40.192H208.821V43.456C209.546 42.3467 210.741 41.408 212.405 40.64C214.112 39.8293 216.032 39.424 218.165 39.424C222.688 39.424 226.272 40.9813 228.917 44.096C231.605 47.168 232.949 51.136 232.949 56C232.949 60.864 231.52 64.8747 228.661 68.032C225.845 71.1467 222.218 72.704 217.781 72.704C213.77 72.704 210.89 71.6373 209.141 69.504V84.16ZM221.301 61.952C222.709 60.544 223.413 58.5813 223.413 56.064C223.413 53.5467 222.709 51.6053 221.301 50.24C219.936 48.8747 218.229 48.192 216.181 48.192C214.176 48.192 212.469 48.8747 211.061 50.24C209.696 51.6053 209.013 53.5467 209.013 56.064C209.013 58.5813 209.696 60.544 211.061 61.952C212.469 63.3173 214.176 64 216.181 64C218.229 64 219.936 63.3173 221.301 61.952ZM237.306 63.232C237.306 60.544 238.18 58.3893 239.93 56.768C241.679 55.104 243.94 54.0587 246.714 53.632L254.202 52.48C255.738 52.2667 256.506 51.5413 256.506 50.304C256.506 49.3227 256.079 48.512 255.226 47.872C254.415 47.1893 253.284 46.848 251.833 46.848C250.212 46.848 248.911 47.3173 247.93 48.256C246.991 49.152 246.479 50.24 246.394 51.52L237.946 49.792C238.159 47.1467 239.46 44.736 241.85 42.56C244.282 40.3413 247.631 39.232 251.898 39.232C256.719 39.232 260.26 40.384 262.522 42.688C264.826 44.992 265.978 47.936 265.978 51.52V67.072C265.978 69.0773 266.106 70.72 266.362 72H257.594C257.38 71.1467 257.274 69.952 257.274 68.416C255.439 71.4027 252.452 72.896 248.314 72.896C244.943 72.896 242.255 71.9573 240.25 70.08C238.287 68.16 237.306 65.8773 237.306 63.232ZM250.682 65.856C252.346 65.856 253.732 65.3653 254.842 64.384C255.951 63.4027 256.506 61.7813 256.506 59.52V58.112L250.49 59.072C248.1 59.456 246.906 60.6293 246.906 62.592C246.906 63.488 247.204 64.256 247.802 64.896C248.442 65.536 249.402 65.856 250.682 65.856ZM285.706 84.224H275.466L282.698 67.712L269.322 40.192H280.202L287.946 57.216L294.986 40.192H305.29L285.706 84.224Z" fill="white"/>
<rect y="27" width="15" height="60" rx="2" transform="rotate(-10 0 27)" fill="#CC02FE"/>
<rect x="30" y="26.6047" width="15" height="60" rx="2" transform="rotate(-10 30 26.6047)" fill="#CC02FE"/>
</svg>
